<?xml version="1.0" standalone="no"?>
<!DOCTYPE svg PUBLIC "-//W3C//DTD SVG 1.1//EN"
"http://www.w3.org/Graphics/SVG/1.1/DTD/svg11.dtd">

<svg xmlns="http://www.w3.org/2000/svg" version="1.1"> 
    <defs>
        <svg id="us" data-name="Layer 1" xmlns="http://www.w3.org/2000/svg" viewBox="0 0 524.34 102.98"><title>updated banner</title><polygon points="421.11 59.78 498.27 60.46 524.34 18.39 421.49 17.48 421.11 59.78" fill="#e6e6e6"/><polygon points="421.11 59.78 498.27 60.46 523.6 102.98 420.74 102.08 421.11 59.78" fill="#e6e6e6"/><polygon points="102.86 60.23 25.7 60.23 0 17.93 102.86 17.93 102.86 60.23" fill="#e6e6e6"/><polygon points="102.86 60.23 25.7 60.23 0 102.53 102.86 102.53 102.86 60.23" fill="#e6e6e6"/><rect x="57.61" width="407.5" height="78.15" fill="#fff"/><text transform="translate(75.29 52.35)" font-size="50" fill="gray" font-family="Cherry Swash"><tspan letter-spacing="3.01">E</tspan><tspan x="42.55" y="0" letter-spacing="-1">l</tspan><tspan x="56.1" y="0">en</tspan><tspan x="113.15" y="0">a &amp; </tspan><tspan x="206.55" y="0">B</tspan><tspan x="247.8" y="0">r</tspan><tspan x="268.55" y="0">en</tspan><tspan x="325.6" y="0">dt</tspan></text><rect x="25.73" y="45.65" width="31.87" height="27.25" fill="#e6e6e6"/><rect x="465.11" y="50.9" width="33.17" height="27.25" fill="#e6e6e6"/></svg>

        <svg id="date" data-name="Layer 1" xmlns="http://www.w3.org/2000/svg" viewBox="0 0 252.45 49.64"><title>date banner</title><polygon points="203.19 29.03 240.01 29.35 252.45 9.27 203.37 8.84 203.19 29.03" fill="#e6e6e6" opacity="0.95"/><polygon points="203.19 29.03 240.01 29.35 252.09 49.65 203.01 49.21 203.19 29.03" fill="#e6e6e6" opacity="0.95"/><polygon points="49.09 29.24 12.26 29.24 0 9.06 49.09 9.06 49.09 29.24" fill="#e6e6e6" opacity="0.95"/><polygon points="49.09 29.24 12.26 29.24 0 49.43 49.09 49.43 49.09 29.24" fill="#e6e6e6" opacity="0.95"/><rect x="19.17" y="0.5" width="213.71" height="39.82" fill="#fff" stroke="#fff" stroke-miterlimit="10"/><text transform="translate(29.87 30.07)" font-size="23" fill="gray" font-family="Cherry Swash">Dec<tspan x="42.71" y="0">em</tspan><tspan x="76.04" y="0">ber </tspan><tspan x="118.4" y="0">9, </tspan><tspan x="142.94" y="0">2017</tspan></text></svg>

        <svg id="story" data-name="Layer 1" xmlns="http://www.w3.org/2000/svg" viewBox="0 0 524.34 102.98"><title>our story banner</title><rect x="25.9" y="43.74" width="31.87" height="27.25" fill="#e6e6e6"/><polygon points="421.11 59.78 498.27 60.46 524.34 18.39 421.49 17.48 421.11 59.78" fill="#e6e6e6"/><polygon points="421.11 59.78 498.27 60.46 523.6 102.98 420.74 102.08 421.11 59.78" fill="#e6e6e6"/><polygon points="102.86 60.23 25.7 60.23 0 17.93 102.86 17.93 102.86 60.23" fill="#e6e6e6"/><polygon points="102.86 60.23 25.7 60.23 0 102.53 102.86 102.53 102.86 60.23" fill="#e6e6e6"/><rect x="57.61" width="407.5" height="78.15" fill="#fff"/><text transform="translate(150.19 50.65)" font-size="44" fill="gray" font-family="Cherry Swash" letter-spacing="3.01">O<tspan x="34.63" y="0">ur</tspan><tspan x="87.38" y="0"> </tspan><tspan x="104.41" y="0" letter-spacing="2.01">Story</tspan></text><rect x="465.11" y="51.9" width="33.12" height="27.25" fill="#e6e6e6"/></svg>

        <svg id="wedding" data-name="Layer 1" xmlns="http://www.w3.org/2000/svg" viewBox="0 0 524.34 102.98"><title>our wedding banner</title><rect x="25.79" y="46.83" width="33.12" height="27.25" fill="#e6e6e6"/><polygon points="421.11 59.78 498.27 60.46 524.34 18.39 421.49 17.48 421.11 59.78" fill="#e6e6e6"/><polygon points="421.11 59.78 498.27 60.46 523.6 102.98 420.74 102.08 421.11 59.78" fill="#e6e6e6"/><polygon points="102.86 60.23 25.7 60.23 0 17.93 102.86 17.93 102.86 60.23" fill="#e6e6e6"/><polygon points="102.86 60.23 25.7 60.23 0 102.53 102.86 102.53 102.86 60.23" fill="#e6e6e6"/><rect x="57.61" width="407.5" height="78.15" fill="#fff"/><text transform="translate(86.43 56.92)" font-size="50" fill="gray" font-family="Cherry Swash" letter-spacing="3.01">O<tspan x="39.35" y="0" letter-spacing="4.02">ur</tspan><tspan x="99.3" y="0" font-size="43"> </tspan><tspan x="115.94" y="0" letter-spacing="2.01">Wedding</tspan></text><rect x="465.11" y="46.15" width="33.12" height="27.25" fill="#e6e6e6"/></svg>

        <svg id="contact" data-name="Layer 1" xmlns="http://www.w3.org/2000/svg" viewBox="0 0 524.34 102.98"><title>contact us banner</title><polygon points="421.11 59.78 498.27 60.46 524.34 18.39 421.49 17.48 421.11 59.78" fill="#e6e6e6"/><polygon points="421.11 59.78 498.27 60.46 523.6 102.98 420.74 102.08 421.11 59.78" fill="#e6e6e6"/><rect x="25.79" y="45.24" width="33.12" height="27.25" fill="#e6e6e6"/><polygon points="102.86 60.23 25.7 60.23 0 17.93 102.86 17.93 102.86 60.23" fill="#e6e6e6"/><polygon points="102.86 60.23 25.7 60.23 0 102.53 102.86 102.53 102.86 60.23" fill="#e6e6e6"/><rect x="57.61" width="407.5" height="78.15" fill="#fff"/><text transform="translate(115.89 52.4)" font-size="50" fill="gray" font-family="Cherry Swash" letter-spacing="3.01">Contact Us</text><rect x="465.11" y="43.78" width="33.12" height="27.25" fill="#e6e6e6"/></svg>
    </defs>
</svg>