<?xml version="1.0" standalone="no"?>
<!DOCTYPE svg PUBLIC "-//W3C//DTD SVG 1.1//EN"
"http://www.w3.org/Graphics/SVG/1.1/DTD/svg11.dtd">

<svg xmlns="http://www.w3.org/2000/svg" version="1.1"> 
    <defs>
        <symbol id="us" data-name="Layer 1" xmlns="http://www.w3.org/2000/svg" viewBox="0 0 562.34 103.48"><title>Name Banner</title><polygon points="459.11 60.28 536.27 60.96 562.34 18.89 459.49 17.98 459.11 60.28" style="fill:#e6e6e6;opacity:0.9500000000000001"/><polygon points="459.11 60.28 536.27 60.96 561.6 103.48 458.74 102.58 459.11 60.28" style="fill:#e6e6e6;opacity:0.9500000000000001"/><polygon points="102.86 60.73 25.7 60.73 0 18.43 102.86 18.43 102.86 60.73" style="fill:#e6e6e6;opacity:0.9500000000000001"/><polygon points="102.86 60.73 25.7 60.73 0 103.03 102.86 103.03 102.86 60.73" style="fill:#e6e6e6;opacity:0.9500000000000001"/><rect x="78.27" y="0.5" width="405.33" height="78.15" style="fill:#fff;stroke:#fff;stroke-miterlimit:10"/><text transform="translate(96.43 60.42)" style="font-size:50px;fill:gray;font-family:Cherry Swash"><tspan style="letter-spacing:3.0135003147816244px">E</tspan><tspan x="42.55" y="0" style="letter-spacing:-1.004500104927208px">l</tspan><tspan x="56.1" y="0">en</tspan><tspan x="113.15" y="0">a &amp; </tspan><tspan x="206.55" y="0">B</tspan><tspan x="247.8" y="0">r</tspan><tspan x="268.55" y="0">en</tspan><tspan x="325.6" y="0">dt</tspan></text></symbol>
    </defs>
</svg>