<?xml version="1.0" standalone="no"?>
<!DOCTYPE svg PUBLIC "-//W3C//DTD SVG 1.1//EN"
"http://www.w3.org/Graphics/SVG/1.1/DTD/svg11.dtd">

<svg xmlns="http://www.w3.org/2000/svg" version="1.1"> 
    <defs>
        <svg id="us" data-name="Layer 1" xmlns="http://www.w3.org/2000/svg" viewBox="0 0 562.34 103.48"><title>Name Banner</title><polygon points="459.11 60.28 536.27 60.96 562.34 18.89 459.49 17.98 459.11 60.28" fill="#e6e6e6" opacity="0.95"/><polygon points="459.11 60.28 536.27 60.96 561.6 103.48 458.74 102.58 459.11 60.28" fill="#e6e6e6" opacity="0.95"/><polygon points="102.86 60.73 25.7 60.73 0 18.43 102.86 18.43 102.86 60.73" fill="#e6e6e6" opacity="0.95"/><polygon points="102.86 60.73 25.7 60.73 0 103.03 102.86 103.03 102.86 60.73" fill="#e6e6e6" opacity="0.95"/><rect x="78.27" y="0.5" width="405.33" height="78.15" fill="#fff" stroke="#fff" stroke-miterlimit="10"/><text transform="translate(96.43 60.42)" font-size="50" fill="gray" font-family="Cherry Swash"><tspan letter-spacing="3.01">E</tspan><tspan x="42.55" y="0" letter-spacing="-1">l</tspan><tspan x="56.1" y="0">en</tspan><tspan x="113.15" y="0">a &amp; </tspan><tspan x="206.55" y="0">B</tspan><tspan x="247.8" y="0">r</tspan><tspan x="268.55" y="0">en</tspan><tspan x="325.6" y="0">dt</tspan></text></svg>


        <svg id="date" data-name="Layer 1" xmlns="http://www.w3.org/2000/svg" viewBox="0 0 252.45 49.64"><title>date banner</title><polygon points="203.19 29.03 240.01 29.35 252.45 9.27 203.37 8.84 203.19 29.03" fill="#e6e6e6" opacity="0.95"/><polygon points="203.19 29.03 240.01 29.35 252.09 49.65 203.01 49.21 203.19 29.03" fill="#e6e6e6" opacity="0.95"/><polygon points="49.09 29.24 12.26 29.24 0 9.06 49.09 9.06 49.09 29.24" fill="#e6e6e6" opacity="0.95"/><polygon points="49.09 29.24 12.26 29.24 0 49.43 49.09 49.43 49.09 29.24" fill="#e6e6e6" opacity="0.95"/><rect x="19.17" y="0.5" width="213.71" height="39.82" fill="#fff" stroke="#fff" stroke-miterlimit="10"/><text transform="translate(29.87 30.07)" font-size="23" fill="gray" font-family="Cherry Swash">Dec<tspan x="42.71" y="0">em</tspan><tspan x="76.04" y="0">ber </tspan><tspan x="118.4" y="0">9, </tspan><tspan x="142.94" y="0">2017</tspan></text></svg>

    </defs>
</svg>